# xmcd
#
# Track frame offsets:
#	150
#	16561
#	32049
#	51247
#	61591
#	72165
#	92920
#	111669
#	129590
#	145408
#	163298
#	174445
#
# Disc length: 2496 seconds
# Revision: 0
# Processed by: cddbd v1.5.2PL0 Copyright (c) Steve Scherf et al.
# Submitted via: dBpowerAMP V12.0
#
DISCID=a609be0c
DTITLE=Swing Sisters - Somewhere There's Music
DYEAR=2016
DGENRE=Country
TTITLE0=Blues For Dixie
TTITLE1=Cowgirl's Home On The Range
TTITLE2=Red River Valley
TTITLE3=Sunny Side Of The Street
TTITLE4=How High The Moon
TTITLE5=Sleepwalk
TTITLE6=Buckskin Horse
TTITLE7=Steel Guitar Rag
TTITLE8=Along The Santa Fe Trail
TTITLE9=Sweetest Gift
TTITLE10=Jesse's Polka
TTITLE11=Texas, Our Texas
EXTD=
EXTT0=
EXTT1=
EXTT2=
EXTT3=
EXTT4=
EXTT5=
EXTT6=
EXTT7=
EXTT8=
EXTT9=
EXTT10=
EXTT11=
PLAYORDER=
